<svg width="0" height="0" class="hidden">
  <symbol xmlns="http://www.w3.org/2000/svg" fill="none" viewBox="0 0 24 24" id="chevron">
    <circle cx="12" cy="12" r="9" stroke="#000000" stroke-linecap="round" stroke-linejoin="round" stroke-width="2"></circle>
    <path stroke="#000000" stroke-linecap="round" stroke-linejoin="round" stroke-width="2" d="m11 9 3 3-3 3"></path>
  </symbol>
  <symbol version="1.1" id="clock" xmlns="http://www.w3.org/2000/svg" xmlns:xlink="http://www.w3.org/1999/xlink" x="0px" y="0px" xml:space="preserve" viewBox="0 0 501.656 501.656">
    <g>
      <g>
        <path d="M342.512,328h-200c-2.122,0-4.156,0.844-5.656,2.344l-96,96l11.312,11.312L145.824,344h187.888
			c-1.664,9.496-6.888,24-23.2,24h-88v16h88c31.64,0,40-31.4,40-48C350.512,331.582,346.93,328,342.512,328z"></path>
      </g>
    </g>
    <g>
      <g>
        <path d="M444.168,274.344c-3.124-3.123-8.188-3.123-11.312,0l-72,72l11.312,11.312l65.712-65.712
			c10.828,14.37,8.629,34.68-5.024,46.4L339.2,432H174.512c-2.122,0-4.156,0.844-5.656,2.344l-56,56l11.312,11.312L177.824,448
			h164.688c2.122,0,4.156-0.844,5.656-2.344l96-96C473.96,319.864,457.192,287.368,444.168,274.344z"></path>
      </g>
    </g>
    <g>
      <g>
        <path d="M262.512,0c-83.947,0-152,68.053-152,152s68.053,152,152,152c83.909-0.093,151.907-68.091,152-152
			C414.512,68.053,346.459,0,262.512,0z M262.512,288c-75.111,0-136-60.889-136-136s60.89-136,136-136
			c75.076,0.084,135.916,60.924,136,136C398.512,227.111,337.623,288,262.512,288z"></path>
      </g>
    </g>
    <g>
      <g>
        <path d="M262.512,40c-61.856,0-112,50.144-112,112s50.145,112,112,112c61.828-0.066,111.934-50.172,112-112
			C374.512,90.144,324.368,40,262.512,40z M270.512,247.666V224h-16v23.666c-46.637-3.848-83.817-41.028-87.666-87.666h23.666v-16
			h-23.666c3.849-46.637,41.029-83.817,87.666-87.666V80h16V56.343c46.612,3.893,83.764,41.045,87.657,87.657h-23.657v16h23.666
			C354.33,206.637,317.15,243.817,270.512,247.666z"></path>
      </g>
    </g>
    <g>
      <g>
        <path d="M284.18,162.33c1.494-3.129,2.333-6.631,2.333-10.33c0-10.449-6.68-19.334-16-22.629V96h-16v33.371
			c-9.32,3.295-16,12.18-16,22.629c-0.001,13.255,10.745,24,23.999,24c3.711,0,7.225-0.843,10.362-2.347l23.977,23.977
			l11.314-11.314L284.18,162.33z M262.512,160c-4.418,0-8-3.582-8-8c0-4.418,3.582-8,8-8c4.418,0,8,3.582,8,8
			C270.512,156.418,266.93,160,262.512,160z"></path>
      </g>
    </g>
    <g></g>
    <g></g>
    <g></g>
    <g></g>
    <g></g>
    <g></g>
    <g></g>
    <g></g>
    <g></g>
    <g></g>
    <g></g>
    <g></g>
    <g></g>
    <g></g>
    <g></g>
  </symbol>
  <symbol xmlns="http://www.w3.org/2000/svg" viewBox="0 0 64 64" id="computer">
    <g id="Computer-Engineer-Coding-Programing-Configulation">
      <path d="m13.293 14.293-3 3a1 1 0 0 0 0 1.414l3 3 1.414-1.414-2.293-2.293 2.293-2.293z"></path>
      <path d="m14.228 17h8.544v2h-8.544z" transform="matrix(.351 -.936 .936 .351 -4.85 29.002)"></path>
      <path d="m23.707 21.707 3-3a1 1 0 0 0 0-1.414l-3-3-1.414 1.414 2.293 2.293-2.293 2.293z"></path>
      <path d="m10 26h4v2h-4z"></path>
      <path d="m16 26h10v2h-10z"></path>
      <path d="m12 30h4v2h-4z"></path>
      <path d="m18 30h10v2h-10z"></path>
      <path d="m30 30h2v2h-2z"></path>
      <path d="m12 34h4v2h-4z"></path>
      <path d="m18 34h10v2h-10z"></path>
      <path d="m30 34h2v2h-2z"></path>
      <path d="m61.142 13.01-2.682-.383a10.86 10.86 0 0 0 -.679-1.639l1.625-2.166a1 1 0 0 0 -.093-1.307l-2.828-2.828a1 1 0 0 0 -1.306-.093l-2.167 1.624a10.9 10.9 0 0 0 -1.639-.678l-.383-2.682a1 1 0 0 0 -.99-.858h-4a1 1 0 0 0 -.99.858l-.383 2.682a10.855 10.855 0 0 0 -1.639.678l-2.167-1.624a1 1 0 0 0 -1.306.093l-2.828 2.828a1 1 0 0 0 -.093 1.307l1.625 2.166a10.86 10.86 0 0 0 -.679 1.639l-2.682.383a1 1 0 0 0 -.858.99v4a1 1 0 0 0 .858.99l2.682.383a10.86 10.86 0 0 0 .679 1.639l-1.625 2.166a1 1 0 0 0 .093 1.307l2.828 2.828a1 1 0 0 0 1.306.093l2.167-1.624a10.855 10.855 0 0 0 1.639.678l.383 2.682a1 1 0 0 0 .99.858h4a1 1 0 0 0 .99-.858l.383-2.682a10.9 10.9 0 0 0 1.639-.678l2.167 1.624a1 1 0 0 0 1.306-.093l2.828-2.828a1 1 0 0 0 .093-1.307l-1.625-2.166a10.86 10.86 0 0 0 .679-1.639l2.682-.383a1 1 0 0 0 .858-.99v-4a1 1 0 0 0 -.858-.99zm-1.142 4.123-2.463.352a1 1 0 0 0 -.827.742 8.923 8.923 0 0 1 -.977 2.357 1 1 0 0 0 .061 1.111l1.492 1.99-1.6 1.6-1.991-1.492a1 1 0 0 0 -1.11-.06 8.859 8.859 0 0 1 -2.356.975 1 1 0 0 0 -.744.828l-.352 2.464h-2.266l-.351-2.463a1 1 0 0 0 -.744-.828 8.859 8.859 0 0 1 -2.356-.975 1 1 0 0 0 -1.11.06l-1.991 1.492-1.6-1.6 1.492-1.99a1 1 0 0 0 .061-1.111 8.923 8.923 0 0 1 -.977-2.357 1 1 0 0 0 -.827-.742l-2.464-.353v-2.266l2.463-.352a1 1 0 0 0 .827-.742 8.923 8.923 0 0 1 .977-2.357 1 1 0 0 0 -.061-1.111l-1.492-1.99 1.6-1.6 1.991 1.492a1 1 0 0 0 1.11.06 8.859 8.859 0 0 1 2.356-.975 1 1 0 0 0 .744-.828l.352-2.464h2.266l.351 2.463a1 1 0 0 0 .744.828 8.859 8.859 0 0 1 2.356.975 1 1 0 0 0 1.11-.06l1.991-1.492 1.6 1.6-1.492 1.99a1 1 0 0 0 -.061 1.111 8.923 8.923 0 0 1 .977 2.357 1 1 0 0 0 .827.742l2.464.353z"></path>
      <path d="m48 10a6 6 0 1 0 6 6 6.006 6.006 0 0 0 -6-6zm0 10a4 4 0 1 1 4-4 4 4 0 0 1 -4 4z"></path>
      <path d="m52 40h-48v-25a3 3 0 0 1 3-3h28v-2h-28a5.006 5.006 0 0 0 -5 5v30a5.006 5.006 0 0 0 5 5h12.867l-.75 6h-2.117a2 2 0 0 0 -2 2v2a2 2 0 0 0 2 2h22a2 2 0 0 0 2-2v-2a2 2 0 0 0 -2-2h-2.117l-.75-6h12.867a5.006 5.006 0 0 0 5-5v-16h-2zm-13 20h-22v-2h22zm-4.133-4h-13.734l.75-6h12.234zm14.133-8h-42a3 3 0 0 1 -3-3v-3h48v3a3 3 0 0 1 -3 3z"></path>
      <path d="m46 44h2v2h-2z"></path>
    </g>
  </symbol>
  <symbol fill="#000000" version="1.1" xmlns="http://www.w3.org/2000/svg" viewBox="0 0 32 32" id="css">
    <title>css3</title>
    <path d="M24.235 6.519l-16.47-0.004 0.266 3.277 12.653 0.002-0.319 3.394h-8.298l0.3 3.215h7.725l-0.457 4.403-3.636 1.005-3.694-1.012-0.235-2.637h-3.262l0.362 4.817 6.829 2.128 6.714-1.912 1.521-16.675zM2.879 1.004h26.242l-2.387 26.946-10.763 3.045-10.703-3.047z"></path>
  </symbol>
  <symbol xmlns="http://www.w3.org/2000/svg" viewBox="0 0 48 48" id="docker">
    <title>docker</title>
    <g id="Layer_2">
      <g id="invisible_box">
        <rect width="48" height="48" fill="none"></rect>
        <rect width="48" height="48" fill="none"></rect>
      </g>
      <g id="icons_Q2">
        <g>
          <rect x="10" y="19.3" width="4.4" height="4.44"></rect>
          <rect x="4.6" y="19.3" width="4.4" height="4.44"></rect>
          <path d="M45.4,21.7a6.3,6.3,0,0,0-5.2-.6,6.6,6.6,0,0,0-2.9-4.4l-.5-.5-.5.6A6.1,6.1,0,0,0,35.2,21a5.6,5.6,0,0,0,1,2.8l-1.5.7a10.5,10.5,0,0,1-3,.5H2.2v.6a12.1,12.1,0,0,0,1,6.5l.4.8h0c2.8,4.6,7.7,6.6,13,6.6,10.3,0,18.7-4.4,22.7-14,2.6.2,5.2-.5,6.5-3L46,22ZM10.8,33.5a2.3,2.3,0,1,1,0-4.6,2.3,2.3,0,1,1,0,4.6Z"></path>
          <rect x="10" y="13.7" width="4.4" height="4.44"></rect>
          <rect x="26.5" y="19.3" width="4.4" height="4.44"></rect>
          <rect x="21.1" y="8" width="4.4" height="4.44"></rect>
          <rect x="21.1" y="19.3" width="4.4" height="4.44"></rect>
          <rect x="15.6" y="13.7" width="4.4" height="4.44"></rect>
          <rect x="21.1" y="13.7" width="4.4" height="4.44"></rect>
          <rect x="15.6" y="19.3" width="4.4" height="4.44"></rect>
        </g>
      </g>
    </g>
  </symbol>
  <symbol fill="#000000" role="img" xmlns="http://www.w3.org/2000/svg" viewBox="0 0 24 24" id="express">
    <path d="M24 18.588a1.529 1.529 0 0 1-1.895-.72l-3.45-4.771-.5-.667-4.003 5.444a1.466 1.466 0 0 1-1.802.708l5.158-6.92-4.798-6.251a1.595 1.595 0 0 1 1.9.666l3.576 4.83 3.596-4.81a1.435 1.435 0 0 1 1.788-.668L21.708 7.9l-2.522 3.283a.666.666 0 0 0 0 .994l4.804 6.412zM.002 11.576l.42-2.075c1.154-4.103 5.858-5.81 9.094-3.27 1.895 1.489 2.368 3.597 2.275 5.973H1.116C.943 16.447 4.005 19.009 7.92 17.7a4.078 4.078 0 0 0 2.582-2.876c.207-.666.548-.78 1.174-.588a5.417 5.417 0 0 1-2.589 3.957 6.272 6.272 0 0 1-7.306-.933 6.575 6.575 0 0 1-1.64-3.858c0-.235-.08-.455-.134-.666A88.33 88.33 0 0 1 0 11.577zm1.127-.286h9.654c-.06-3.076-2.001-5.258-4.59-5.278-2.882-.04-4.944 2.094-5.071 5.264z"></path>
  </symbol>
  <symbol xmlns="http://www.w3.org/2000/svg" viewBox="0 0 48 48" id="git">
    <defs></defs>
    <path d="M4.21,22.12a2.87,2.87,0,0,0,0,3.77L22.12,43.8a2.87,2.87,0,0,0,3.77,0l17.9-17.91a2.85,2.85,0,0,0,0-3.77L25.89,4.21A2.68,2.68,0,0,0,24,3.51h0a2.66,2.66,0,0,0-1.88.71Z"></path>
    <line x1="26.33" y1="17.85" x2="30.15" y2="21.67"></line>
    <line x1="17.4" y1="8.92" x2="21.67" y2="13.19"></line>
    <circle cx="24" cy="32.41" r="3.3"></circle>
    <circle cx="24" cy="15.52" r="3.3"></circle>
    <circle cx="32.48" cy="24" r="3.3"></circle>
    <line x1="24" y1="29.11" x2="24" y2="18.82"></line>
  </symbol>
  <symbol id="github" xmlns="http://www.w3.org/2000/svg" viewBox="0 0 48 48">
    <defs></defs>
    <path d="M24,2.5a21.5,21.5,0,0,0-6.8,41.9c1.08.2,1.47-.46,1.47-1s0-1.86,0-3.65c-6,1.3-7.24-2.88-7.24-2.88A5.7,5.7,0,0,0,9,33.68c-1.95-1.33.15-1.31.15-1.31a4.52,4.52,0,0,1,3.29,2.22c1.92,3.29,5,2.34,6.26,1.79a4.61,4.61,0,0,1,1.37-2.88c-4.78-.54-9.8-2.38-9.8-10.62a8.29,8.29,0,0,1,2.22-5.77,7.68,7.68,0,0,1,.21-5.69s1.8-.58,5.91,2.2a20.46,20.46,0,0,1,10.76,0c4.11-2.78,5.91-2.2,5.91-2.2a7.74,7.74,0,0,1,.21,5.69,8.28,8.28,0,0,1,2.21,5.77c0,8.26-5,10.07-9.81,10.61a5.12,5.12,0,0,1,1.46,4c0,2.87,0,5.19,0,5.9s.39,1.24,1.48,1A21.5,21.5,0,0,0,24,2.5"></path>
  </symbol>
  <symbol id="growth" enable-background="new 0 0 512 512" xmlns="http://www.w3.org/2000/svg" viewBox="0 0 512 512">
    <g>
      <g>
        <path d="m504.5 480.837h-38.97v-240.347c0-4.142-3.357-7.5-7.5-7.5s-7.5 3.358-7.5 7.5v240.347h-49.648l-.002-318.357h49.65v43.01c0 4.142 3.357 7.5 7.5 7.5s7.5-3.358 7.5-7.5v-50.51c0-4.142-3.357-7.5-7.5-7.5h-64.65c-4.143 0-7.5 3.358-7.5 7.5v43.012h-57.148c-4.143 0-7.5 3.358-7.5 7.5v43.008h-57.15c-4.143 0-7.5 3.358-7.5 7.5v43.008h-57.15c-4.143 0-7.5 3.358-7.5 7.5v43.008h-57.15c-4.143 0-7.5 3.358-7.5 7.5v38.964h-57.152c-4.143 0-7.5 3.358-7.5 7.5v20.89c0 4.142 3.357 7.5 7.5 7.5s7.5-3.358 7.5-7.5v-13.39h49.65v69.857h-49.65v-21.467c0-4.142-3.357-7.5-7.5-7.5s-7.5 3.358-7.5 7.5v21.467h-31.467v-473.337c0-4.142-3.357-7.5-7.5-7.5s-7.5 3.358-7.5 7.5v38.967h-8.663c-4.143 0-7.5 3.358-7.5 7.5s3.357 7.5 7.5 7.5h8.663v49.65h-8.663c-4.143 0-7.5 3.358-7.5 7.5s3.357 7.5 7.5 7.5h8.663v49.65h-8.663c-4.143 0-7.5 3.358-7.5 7.5s3.357 7.5 7.5 7.5h8.663v49.65h-8.663c-4.143 0-7.5 3.358-7.5 7.5s3.357 7.5 7.5 7.5h8.663v49.651h-8.663c-4.143 0-7.5 3.358-7.5 7.5s3.357 7.5 7.5 7.5h8.663v49.65h-8.663c-4.143 0-7.5 3.358-7.5 7.5s3.357 7.5 7.5 7.5h8.663v49.65h-8.663c-4.143 0-7.5 3.358-7.5 7.5s3.357 7.5 7.5 7.5h8.663v38.967c0 4.142 3.357 7.5 7.5 7.5h38.967v8.663c0 4.142 3.357 7.5 7.5 7.5s7.5-3.358 7.5-7.5v-8.66h49.65v8.66c0 4.142 3.357 7.5 7.5 7.5s7.5-3.358 7.5-7.5v-8.663h49.65v8.663c0 4.142 3.357 7.5 7.5 7.5s7.5-3.358 7.5-7.5v-8.663h49.65v8.663c0 4.142 3.357 7.5 7.5 7.5s7.5-3.358 7.5-7.5v-8.663h49.65v8.663c0 4.142 3.357 7.5 7.5 7.5s7.5-3.358 7.5-7.5v-8.663h49.65v8.663c0 4.142 3.357 7.5 7.5 7.5s7.5-3.358 7.5-7.5v-8.66h49.65v8.66c0 4.142 3.357 7.5 7.5 7.5s7.5-3.358 7.5-7.5v-8.663h38.97c4.143 0 7.5-3.358 7.5-7.5s-3.357-7.498-7.5-7.498zm-362.22-116.321h49.65v116.321h-49.65zm64.651-50.508h49.65v166.829h-49.65zm64.65-50.508h49.65v217.337h-49.65zm64.65-50.508h49.648v267.846h-49.648z"></path>
        <path d="m86.1 338.44c6.323 0 12.267-2.46 16.734-6.927l112.91-112.91c2.929-2.929 2.929-7.678 0-10.606-2.93-2.929-7.678-2.929-10.607 0l-112.909 112.909c-1.635 1.634-3.811 2.534-6.128 2.534-2.311 0-4.482-.9-6.116-2.533-1.64-1.64-2.543-3.817-2.543-6.13 0-2.311.901-4.484 2.543-6.123l263.521-263.52c2.145-2.145 2.786-5.371 1.625-8.173-1.16-2.803-3.896-4.63-6.929-4.63h-23.61c-4.775 0-8.66-3.889-8.66-8.67 0-4.775 3.885-8.66 8.66-8.66h62.63c4.775 0 8.66 3.885 8.66 8.66v62.63c0 4.781-3.885 8.67-8.66 8.67s-8.66-3.889-8.66-8.67v-23.611c0-3.034-1.827-5.768-4.63-6.929-2.804-1.161-6.027-.518-8.174 1.626l-125.88 125.88c-2.929 2.929-2.929 7.678 0 10.606 2.93 2.929 7.678 2.929 10.607 0l113.076-113.076v5.503c0 13.052 10.614 23.67 23.66 23.67s23.66-10.618 23.66-23.67v-62.63c0-13.046-10.614-23.66-23.66-23.66h-62.63c-13.046 0-23.66 10.614-23.66 23.66 0 13.052 10.614 23.67 23.66 23.67h5.504l-250.714 250.713c-4.475 4.469-6.939 10.412-6.939 16.733 0 6.32 2.463 12.264 6.937 16.737 4.466 4.467 10.405 6.927 16.722 6.927z"></path>
      </g>
    </g>
  </symbol>
  <symbol fill="#000000" xmlns="http://www.w3.org/2000/svg" viewBox="0 0 32 32" id="html">
    <path d="M4 2l2.181 24.738 9.788 3.262 9.85-3.262 2.181-24.738zM23.262 9.994h-11.488l0.256 3.088h10.975l-0.85 9.275-6.119 1.688v0.019h-0.069l-6.169-1.706-0.375-4.738h2.981l0.219 2.381 3.344 0.906 3.356-0.906 0.375-3.887h-10.431l-0.8-9.1h15.069z"></path>
  </symbol>
  <symbol fill="#000000" xmlns="http://www.w3.org/2000/svg" viewBox="0 0 32 32" id="jest-svgrepo-com">
    <path d="M29.667 15.76c0-1.885-1.276-3.536-3.104-4.015l3.984-11.745h-19.74l3.996 11.787c-1.772 0.516-2.991 2.135-2.996 3.979 0 1.391 0.693 2.625 1.751 3.385-0.421 0.599-0.907 1.152-1.443 1.656-0.984 0.939-2.141 1.683-3.401 2.199-1.115-0.751-1.593-2.079-1.161-3.26 4.531-1.412 3.531-8.089-1.208-8.109-2.292 0.004-4.151 1.859-4.151 4.151 0 1.131 0.457 2.167 1.203 2.911-0.068 0.125-0.131 0.261-0.199 0.396-0.619 1.281-1.323 2.724-1.593 4.344-0.536 3.245 0.344 5.849 2.469 7.323 1.145 0.808 2.52 1.245 3.927 1.24 2.432 0 4.907-1.224 7.297-2.412 1.708-0.839 3.468-1.719 5.197-2.145 0.641-0.156 1.308-0.249 2.011-0.355 1.427-0.203 2.901-0.416 4.224-1.187 1.531-0.875 2.599-2.385 2.911-4.12 0.229-1.323 0-2.656-0.593-3.828 0.401-0.641 0.62-1.385 0.62-2.193zM27.86 15.76c0 1.287-1.048 2.333-2.333 2.333-2.209-0.005-3.177-2.791-1.444-4.167l0.005-0.009c0.079-0.057 0.163-0.115 0.24-0.168 0 0 0.016 0 0.016-0.009 0.036-0.021 0.072-0.047 0.109-0.068 0.011 0 0.016-0.005 0.025-0.005 0.037-0.021 0.084-0.036 0.131-0.057s0.093-0.036 0.131-0.057c0.009 0 0.015-0.005 0.025-0.005 0.037-0.011 0.079-0.031 0.115-0.036 0.005 0 0.027-0.011 0.037-0.011 0.047-0.011 0.083-0.021 0.129-0.027h0.005l0.141-0.031c0.009 0 0.025 0 0.036-0.011 0.036 0 0.073-0.011 0.115-0.011h0.041c0.047 0 0.093-0.005 0.151-0.005h0.12c0.037 0 0.068 0 0.104 0.005h0.016c0.073 0.011 0.151 0.021 0.224 0.043 1.083 0.229 1.86 1.187 1.86 2.296zM13.391 1.855h14.573l-3.344 9.864c-0.141 0.027-0.276 0.073-0.417 0.12l-3.52-7.177-3.532 7.131c-0.135-0.043-0.287-0.073-0.437-0.099zM20.016 14.953c-0.172-0.855-0.609-1.636-1.251-2.224l1.917-3.869 1.937 3.952c-0.579 0.573-0.995 1.308-1.161 2.141zM15.375 13.489c0.041-0.011 0.084-0.020 0.131-0.025h0.025c0.037-0.011 0.073-0.011 0.109-0.021h0.037c0.036 0 0.068-0.011 0.104-0.011h0.359c0.037 0 0.068 0.011 0.095 0.011 0.020 0 0.025 0 0.047 0.011 0.036 0.011 0.063 0.011 0.099 0.016 0.011 0 0.021 0 0.041 0.009l0.125 0.027h0.011c0.036 0.011 0.079 0.021 0.115 0.041 0.005 0 0.016 0.005 0.036 0.005 0.027 0.011 0.063 0.021 0.095 0.036 0.004 0 0.015 0.011 0.025 0.011 0.036 0.021 0.073 0.032 0.109 0.047h0.011c0.041 0.016 0.083 0.037 0.12 0.068h0.011c0.036 0.016 0.072 0.041 0.109 0.063 0.009 0 0.009 0.011 0.020 0.011 0.037 0.016 0.063 0.047 0.099 0.063l0.011 0.011c0.109 0.083 0.213 0.176 0.319 0.271l0.004 0.005c0.417 0.437 0.647 1.015 0.641 1.613-0.099 3.011-4.568 3.011-4.667 0-0.005-1.067 0.724-2 1.76-2.26zM6.255 13.421c1.287 0 2.333 1.052 2.333 2.339s-1.047 2.333-2.333 2.333c-1.285 0-2.333-1.047-2.333-2.333s1.048-2.339 2.333-2.339zM27.807 21.459c-0.213 1.197-0.952 2.239-2.009 2.844-1.011 0.583-2.256 0.771-3.557 0.952-0.735 0.095-1.469 0.224-2.188 0.391-1.927 0.475-3.781 1.396-5.579 2.287-2.296 1.141-4.463 2.213-6.473 2.213-1.031 0.005-2.036-0.312-2.875-0.916-2.037-1.407-1.937-4.047-1.693-5.495 0.219-1.355 0.839-2.62 1.432-3.833 0.043-0.073 0.068-0.141 0.105-0.213 0.203 0.072 0.416 0.129 0.64 0.167-0.355 1.963 0.645 3.995 2.593 4.995l0.349 0.181 0.38-0.135c1.62-0.579 3.125-1.511 4.448-2.76 0.735-0.683 1.38-1.453 1.927-2.292 0.215 0.036 0.428 0.047 0.641 0.047 1.885-0.005 3.531-1.276 4.011-3.104h1.557c0.473 1.828 2.124 3.104 4.011 3.104 0.771 0 1.484-0.213 2.093-0.573 0.24 0.693 0.317 1.417 0.187 2.141z"></path>
  </symbol>
  <symbol fill="#000000" version="1.1" xmlns="http://www.w3.org/2000/svg" xmlns:xlink="http://www.w3.org/1999/xlink" enable-background="new 0 0 512 512" xml:space="preserve" viewBox="0 0 512 512" id="js">
    <g id="5151e0c8492e5103c096af88a51e7e7e">
      <path display="inline" d="M218.195,257.521c0,64.719,4.624,119.1-27.309,151.283c-17.961,18.105-46.301,28.772-81.17,28.772
		c-57.192,0-88.947-27.862-109.215-66.416c19.512-12.459,39.452-24.502,59.775-36.154c8.292,23.188,36.291,49.258,67.888,33.21
		c20.027-10.18,17.715-41.04,17.715-74.537c0-69.549,0-149.78,0-212.528c-0.063-1.044-0.125-2.087,0.732-2.214
		c23.866,0,47.728,0,71.585,0C218.195,134.832,218.195,198.069,218.195,257.521z M399.727,215.462
		c-18.247-7.814-40.928-17.058-46.488-33.952c-6.233-18.934,4.396-34.533,16.231-39.841c26.023-11.688,57.038,7.556,63.463,27.301
		c19.583-11.657,39.103-23.384,56.826-36.896c-20.826-34.584-51.354-59.342-107.003-57.561
		c-30.64,0.979-53.657,10.652-70.841,25.088c-16.771,14.085-29.721,33.854-31.737,61.989
		c-6.025,84.212,56.988,105.708,110.695,129.137c16.93,7.385,35.751,14.842,43.54,29.517c16.061,30.282-12.389,50.26-36.898,52.397
		c-39.336,3.427-65.858-19.587-81.175-43.54c-19.133,11.86-39.938,22.045-58.298,34.683c25.537,44.908,67.409,73.98,132.831,73.793
		c66.74-0.188,116.219-32.366,120.281-92.977C516.677,262.216,454.956,239.105,399.727,215.462z"></path>
    </g>
  </symbol>
  <symbol xmlns="http://www.w3.org/2000/svg" viewBox="0 0 50 2" id="line">
    <path fill="#63c3ef" d="M0 0h50v2H0z"></path>
  </symbol>
  <symbol id="menu" enable-background="new 0 0 24 24" xmlns="http://www.w3.org/2000/svg" viewBox="0 0 24 24">
    <g>
      <path d="m21.5 24h-19c-1.379 0-2.5-1.122-2.5-2.5v-19c0-1.378 1.121-2.5 2.5-2.5h19c1.379 0 2.5 1.122 2.5 2.5v19c0 1.378-1.121 2.5-2.5 2.5zm-19-23c-.827 0-1.5.673-1.5 1.5v19c0 .827.673 1.5 1.5 1.5h19c.827 0 1.5-.673 1.5-1.5v-19c0-.827-.673-1.5-1.5-1.5z"></path>
    </g>
    <g>
      <path d="m16.5 8h-9c-.276 0-.5-.224-.5-.5s.224-.5.5-.5h9c.276 0 .5.224.5.5s-.224.5-.5.5z"></path>
    </g>
    <g>
      <path d="m16.5 12.5h-9c-.276 0-.5-.224-.5-.5s.224-.5.5-.5h9c.276 0 .5.224.5.5s-.224.5-.5.5z"></path>
    </g>
    <g>
      <path d="m16.5 17h-9c-.276 0-.5-.224-.5-.5s.224-.5.5-.5h9c.276 0 .5.224.5.5s-.224.5-.5.5z"></path>
    </g>
  </symbol>
  <symbol fill="#000000" version="1.1" xmlns="http://www.w3.org/2000/svg" viewBox="0 0 32 32" id="mongodb">
    <title>mongodb</title>
    <path d="M15.821 23.185s0-10.361 0.344-10.36c0.266 0 0.612 13.365 0.612 13.365-0.476-0.056-0.956-2.199-0.956-3.005zM22.489 12.945c-0.919-4.016-2.932-7.469-5.708-10.134l-0.007-0.006c-0.338-0.516-0.647-1.108-0.895-1.732l-0.024-0.068c0.001 0.020 0.001 0.044 0.001 0.068 0 0.565-0.253 1.070-0.652 1.409l-0.003 0.002c-3.574 3.034-5.848 7.505-5.923 12.508l-0 0.013c-0.001 0.062-0.001 0.135-0.001 0.208 0 4.957 2.385 9.357 6.070 12.115l0.039 0.028 0.087 0.063q0.241 1.784 0.412 3.576h0.601c0.166-1.491 0.39-2.796 0.683-4.076l-0.046 0.239c0.396-0.275 0.742-0.56 1.065-0.869l-0.003 0.003c2.801-2.597 4.549-6.297 4.549-10.404 0-0.061-0-0.121-0.001-0.182l0 0.009c-0.003-0.981-0.092-1.94-0.261-2.871l0.015 0.099z"></path>
  </symbol>
  <symbol fill="none" xmlns="http://www.w3.org/2000/svg" viewBox="0 0 24 24" id="nextjs">
    <g clip-path="url(#clip0)">
      <path d="M11.2141 0.00645944C11.1625 0.0111515 10.9982 0.0275738 10.8504 0.039304C7.44164 0.346635 4.24868 2.18593 2.22639 5.01291C1.10029 6.58476 0.380059 8.36775 0.107918 10.2563C0.0117302 10.9156 0 11.1103 0 12.0041C0 12.898 0.0117302 13.0927 0.107918 13.7519C0.760117 18.2587 3.96716 22.0452 8.31672 23.4481C9.0956 23.6991 9.91672 23.8704 10.8504 23.9736C11.2141 24.0135 12.7859 24.0135 13.1496 23.9736C14.7613 23.7953 16.1267 23.3965 17.4733 22.7091C17.6798 22.6035 17.7196 22.5754 17.6915 22.5519C17.6727 22.5378 16.793 21.3578 15.7372 19.9314L13.8182 17.339L11.4135 13.7801C10.0903 11.8235 9.00176 10.2235 8.99238 10.2235C8.98299 10.2211 8.97361 11.8024 8.96891 13.7331C8.96188 17.1138 8.95953 17.2499 8.9173 17.3296C8.85631 17.4446 8.80938 17.4915 8.71085 17.5431C8.63578 17.5807 8.57009 17.5877 8.21584 17.5877H7.80997L7.70205 17.5197C7.63167 17.4751 7.58006 17.4164 7.54487 17.3484L7.4956 17.2428L7.50029 12.539L7.50733 7.83285L7.58006 7.74136C7.6176 7.69209 7.69736 7.62875 7.75367 7.59825C7.84985 7.55133 7.88739 7.54664 8.29325 7.54664C8.77185 7.54664 8.85161 7.5654 8.97595 7.70147C9.01114 7.73901 10.3132 9.7003 11.871 12.0628C13.4287 14.4252 15.5589 17.651 16.6053 19.2346L18.5056 22.1132L18.6018 22.0499C19.4534 21.4962 20.3543 20.7079 21.0674 19.8868C22.5853 18.1437 23.5636 16.0182 23.8921 13.7519C23.9883 13.0927 24 12.898 24 12.0041C24 11.1103 23.9883 10.9156 23.8921 10.2563C23.2399 5.74957 20.0328 1.96306 15.6833 0.560125C14.9161 0.311445 14.0997 0.140184 13.1848 0.036958C12.9595 0.0134976 11.4088 -0.0123089 11.2141 0.00645944ZM16.1267 7.26511C16.2393 7.32142 16.3308 7.42933 16.3636 7.54194C16.3824 7.60294 16.3871 8.90734 16.3824 11.8469L16.3754 16.0651L15.6317 14.9249L14.8856 13.7848V10.7185C14.8856 8.73608 14.895 7.62171 14.9091 7.56775C14.9466 7.43637 15.0287 7.33315 15.1413 7.27215C15.2375 7.22288 15.2727 7.21819 15.6411 7.21819C15.9883 7.21819 16.0493 7.22288 16.1267 7.26511Z" fill="#000000"></path>
    </g>
    <defs>
      <clipPath id="clip0">
        <rect width="24" height="24" fill="white"></rect>
      </clipPath>
    </defs>
  </symbol>
  <symbol fill="#000000" version="1.1" xmlns="http://www.w3.org/2000/svg" xmlns:xlink="http://www.w3.org/1999/xlink" enable-background="new 0 0 512 512" xml:space="preserve" viewBox="0 0 512 512" id="nodejs">
    <g id="5151e0c8492e5103c096af88a51f17e3">
      <path display="inline" d="M482.585,147.869v216.113c0,14.025-7.546,27.084-19.672,34.143L275.665,506.241
		c-5.989,3.474-12.782,5.259-19.719,5.259c-6.838,0-13.649-1.785-19.639-5.259l-62.521-36.99c-9.326-5.207-4.775-7.059-1.692-8.128
		c12.454-4.322,14.973-5.318,28.268-12.863c1.387-0.793,3.216-0.483,4.647,0.343l48.031,28.519c1.741,0.981,4.2,0.981,5.801,0
		l187.263-108.086c1.744-0.996,2.862-2.983,2.862-5.053V147.869c0-2.117-1.118-4.094-2.906-5.163L258.874,34.716
		c-1.726-1.01-4.03-1.01-5.768,0L65.962,142.736c-1.818,1.04-2.965,3.079-2.965,5.133v216.113c0,2.069,1.146,4.009,2.954,4.99
		l51.299,29.654c27.829,13.903,44.875-2.485,44.875-18.956V166.309c0-3.017,2.423-5.396,5.439-5.396h23.747
		c2.969,0,5.429,2.378,5.429,5.396v213.362c0,37.146-20.236,58.454-55.452,58.454c-10.816,0-19.347,0-43.138-11.713l-49.098-28.287
		c-12.133-6.995-19.638-20.117-19.638-34.143V147.869c0-14.043,7.505-27.15,19.638-34.135L236.308,5.526
		c11.85-6.701,27.608-6.701,39.357,0l187.248,108.208C475.039,120.748,482.585,133.826,482.585,147.869z M321.171,343.367
		c-55.88,0-68.175-14.048-72.294-41.836c-0.477-2.966-3.018-5.175-6.063-5.175h-27.306c-3.382,0-6.096,2.703-6.096,6.104
		c0,35.56,19.354,77.971,111.759,77.971c66.906,0,105.269-26.339,105.269-72.343c0-45.623-30.827-57.76-95.709-66.35
		c-65.579-8.678-72.243-13.147-72.243-28.508c0-12.661,5.643-29.581,54.216-29.581c43.374,0,59.365,9.349,65.94,38.576
		c0.579,2.755,3.083,4.765,5.923,4.765h27.409c1.7,0,3.315-0.73,4.47-1.943c1.158-1.28,1.773-2.947,1.611-4.695
		c-4.241-50.377-37.713-73.844-105.354-73.844c-60.209,0-96.118,25.414-96.118,68.002c0,46.217,35.729,59,93.5,64.702
		c69.138,6.782,74.504,16.883,74.504,30.488C384.589,333.299,365.655,343.367,321.171,343.367z"></path>
    </g>
  </symbol>
  <symbol fill="#000000" xmlns="http://www.w3.org/2000/svg" viewBox="0 0 24 24" id="npm">
    <path d="m12 12.534v-2.663h-1.334v2.666zm12-5.334h-24v8h6.666v1.334h5.334v-1.333h12zm-17.334 1.334v5.337h-1.333v-4h-1.334v4h-2.666v-5.334zm6.667 0v5.337h-2.666v1.334h-2.666v-6.666zm9.333 0v5.337h-1.333v-4h-1.334v4h-1.334v-4h-1.333v4h-2.667v-5.334z"></path>
  </symbol>
  <symbol version="1.1" id="quotes" xmlns="http://www.w3.org/2000/svg" xmlns:xlink="http://www.w3.org/1999/xlink" x="0px" y="0px" xml:space="preserve" viewBox="0 0 508.044 508.044">
    <g>
      <g>
        <path d="M0.108,352.536c0,66.794,54.144,120.938,120.937,120.938c66.794,0,120.938-54.144,120.938-120.938
			s-54.144-120.937-120.938-120.937c-13.727,0-26.867,2.393-39.168,6.61C109.093,82.118,230.814-18.543,117.979,64.303
			C-7.138,156.17-0.026,348.84,0.114,352.371C0.114,352.426,0.108,352.475,0.108,352.536z"></path>
        <path d="M266.169,352.536c0,66.794,54.144,120.938,120.938,120.938s120.938-54.144,120.938-120.938S453.9,231.599,387.106,231.599
			c-13.728,0-26.867,2.393-39.168,6.61C375.154,82.118,496.875-18.543,384.04,64.303C258.923,156.17,266.034,348.84,266.175,352.371
			C266.175,352.426,266.169,352.475,266.169,352.536z"></path>
      </g>
    </g>
    <g></g>
    <g></g>
    <g></g>
    <g></g>
    <g></g>
    <g></g>
    <g></g>
    <g></g>
    <g></g>
    <g></g>
    <g></g>
    <g></g>
    <g></g>
    <g></g>
    <g></g>
  </symbol>
  <symbol xmlns="http://www.w3.org/2000/svg" viewBox="0 0 48 48" id="react">
    <title>react</title>
    <g id="Layer_2">
      <g id="invisible_box">
        <rect width="48" height="48" fill="none"></rect>
      </g>
      <g id="Q3_icons">
        <g>
          <path d="M45.9,24c0-2.8-3-5.4-8-7.2l-.9-.3v-.4c1.1-5.5.3-9.6-2.2-11.1s-6.2-.1-10.2,3.4L24,9l-.2-.2h-.2C19.5,5,15.5,3.7,13,5.1s-3.2,5.3-2.2,10.4a4.4,4.4,0,0,1,.2,1l-1.1.4C5,18.6,2.1,21.2,2.1,24s3.2,5.6,8.2,7.4l.7.2a3.6,3.6,0,0,0-.2,1.1c-1,5-.1,8.8,2.2,10.2s6.5.1,10.5-3.4l.6-.5.8.8c2.8,2.4,5.6,3.7,7.8,3.7a4,4,0,0,0,2.2-.6c2.5-1.4,3.4-5.5,2.3-10.7V32a4.3,4.3,0,0,1-.1-.5h.3C42.7,29.6,45.9,26.9,45.9,24ZM43,24c0,1.2-2.2,3.3-6.5,4.7h-.2A36.7,36.7,0,0,0,34.4,24c.7-1.6,1.3-3.2,1.8-4.7l.8.2C41,20.9,43,22.8,43,24ZM26.8,37.6,26,37a43.1,43.1,0,0,0,3.2-4l5.1-.8c.1.2.1.4.2.5a17.5,17.5,0,0,1,.2,5.5h0a4.1,4.1,0,0,1-1.2,2.3C32.5,41.1,29.8,40.3,26.8,37.6Zm-1.3-4.4L24.1,35l-1.6-1.8Zm-13.7-14A31.9,31.9,0,0,0,13.7,24a33,33,0,0,0-1.9,4.9l-.6-.2a14.4,14.4,0,0,1-4.8-2.6A3.1,3.1,0,0,1,5,24c0-1.2,2-3.1,5.8-4.4Zm10.7-4.4L24,13.1l1.5,1.7h-3Zm11-7.3c1.1.6,1.7,3.6.8,8a.4.4,0,0,1-.1.3l-5-.8A43.1,43.1,0,0,0,26,11l.6-.5C29.8,7.7,32.4,6.9,33.5,7.5ZM16.8,18.1,16,19.4l-.7,1.3c-.3-.7-.5-1.4-.8-2.2ZM14.5,29.5c.3-.7.5-1.4.8-2.2l.7,1.3.8,1.3ZM31.2,24a33.7,33.7,0,0,1-1.7,3.2c-.6,1.1-1.3,2.1-1.9,3.1H20.4c-.7-1.1-1.4-2.1-1.9-3.1A31,31,0,0,1,16.8,24a24,24,0,0,1,1.7-3.2,30.5,30.5,0,0,1,1.9-3,43.3,43.3,0,0,1,7.2,0c.7,1,1.3,2,1.9,3A24,24,0,0,1,31.2,24Zm.8-4.6-.8-1.3,2.3.5a18,18,0,0,1-.8,2.1Zm-.8,10.5.8-1.3.7-1.4.9,2.3Zm-9.3-19H22l-3.2,4-5,.8c-.1-.3-.1-.5-.2-.8-.8-4.1-.2-6.9.8-7.4h0a1.3,1.3,0,0,1,.9-.2c1.4,0,3.8,1,6.5,3.4ZM13.6,33.2a2.9,2.9,0,0,1,.2-.9l5.1.7a33,33,0,0,0,3.2,4l-.2.2-.2.2A14.3,14.3,0,0,1,17,40.3a3.2,3.2,0,0,1-2.5.2C13.4,39.9,12.8,37.2,13.6,33.2Z" fill="#231f20"></path>
          <path d="M24,19.6A4.4,4.4,0,1,0,28.3,24,4.4,4.4,0,0,0,24,19.6Z" fill="#231f20"></path>
        </g>
      </g>
    </g>
  </symbol>
  <symbol fill="#000000" xmlns="http://www.w3.org/2000/svg" viewBox="0 -0.5 25 25" id="redux">
    <path d="m17.54 16.745c.893-.089 1.585-.837 1.585-1.746 0-.036-.001-.072-.003-.108v.005c-.047-.963-.834-1.726-1.801-1.736h-.065c-.968.036-1.739.829-1.739 1.802 0 .022 0 .044.001.067v-.003c.026.473.22.897.522 1.217l-.001-.001c-1.187 2.214-3.001 3.96-5.204 5.031l-.069.03c-1.192.66-2.614 1.048-4.127 1.048-.383 0-.761-.025-1.13-.073l.044.005c-1.361-.131-2.533-.844-3.277-1.884l-.009-.014c-.537-.755-.858-1.695-.858-2.711 0-.837.218-1.623.601-2.305l-.012.024c.547-1.036 1.293-1.898 2.194-2.562l.021-.014c-.171-.453-.324-.999-.432-1.56l-.011-.066c-4.683 3.349-4.208 7.93-2.786 10.095 1.243 1.586 3.159 2.596 5.311 2.596.098 0 .195-.002.292-.006h-.014c.035.001.077.001.119.001.647 0 1.276-.075 1.88-.216l-.056.011c4.008-.734 7.29-3.317 8.974-6.814l.032-.074z"></path>
    <path d="m23.18 12.799c-2.403-2.74-5.91-4.46-9.82-4.46-.119 0-.239.002-.357.005h.018-.538c-.283-.567-.86-.95-1.526-.95-.02 0-.039 0-.059.001h.003-.039c-.966.014-1.744.8-1.744 1.768 0 .029.001.057.002.085v-.004c.045.963.832 1.728 1.8 1.738h.079c.714-.028 1.317-.472 1.577-1.094l.004-.012h.585c2.554.003 4.924.787 6.884 2.128l-.042-.027c1.531.98 2.713 2.388 3.392 4.055l.021.058c.26.542.411 1.178.411 1.849 0 .71-.169 1.38-.47 1.972l.011-.025c-.777 1.586-2.379 2.658-4.231 2.658-.068 0-.135-.001-.202-.004h.01c-1.137-.024-2.21-.274-3.183-.707l.052.021c-.379.316-1.011.836-1.47 1.153 1.214.596 2.638.959 4.143.994h.012c.059.002.128.003.197.003 2.552 0 4.787-1.355 6.026-3.384l.018-.031c.342-.811.54-1.753.54-2.742 0-1.98-.796-3.774-2.085-5.079l.001.001-.015.032z"></path>
    <path d="m6.844 17.316c.044.964.833 1.731 1.803 1.738h.064c.968-.033 1.741-.827 1.741-1.8 0-.99-.799-1.794-1.788-1.801h-.067c-.01-.001-.022-.001-.033-.001-.073 0-.143.011-.209.033l.005-.001c-1.07-1.741-1.703-3.85-1.703-6.107 0-.364.016-.724.049-1.079l-.003.046c.091-1.906.791-3.633 1.907-5.007l-.012.016c.991-1.071 2.387-1.753 3.944-1.803h.009c3.412-.064 4.835 4.188 4.945 5.878l1.582.473c-.368-5.181-3.59-7.901-6.671-7.901-3.132.163-5.731 2.27-6.622 5.131l-.014.052c-.438 1.262-.692 2.716-.692 4.229 0 2.588.741 5.003 2.021 7.044l-.032-.055c-.143.216-.228.481-.228.766 0 .053.003.105.009.156l-.001-.006z"></path>
  </symbol>
  <symbol id="search" xmlns="http://www.w3.org/2000/svg" viewBox="0 0 21.8 23.8">
    <defs></defs>
    <path d="M11,17.9a8.7,8.7,0,0,0,.8,4.8,1,1,0,0,0,1.2.4.8.8,0,0,0,.4-1.2,8.3,8.3,0,0,1-.7-3.8,7.6,7.6,0,0,1,15.2,1.1A7.7,7.7,0,0,1,16.1,25a.8.8,0,0,0-1.2.2.9.9,0,0,0,.2,1.3A10,10,0,0,0,19.6,28a9.3,9.3,0,0,0,6.1-1.7l5.5,6.4a.9.9,0,0,0,.6.3.7.7,0,0,0,.7-.2.9.9,0,0,0,.1-1.2L27,25.2a8.9,8.9,0,0,0,2.6-5.8A9.3,9.3,0,1,0,11,17.9Z" transform="translate(-10.9 -9.3)"></path>
  </symbol>
  <symbol version="1.1" id="settings" xmlns="http://www.w3.org/2000/svg" xmlns:xlink="http://www.w3.org/1999/xlink" x="0px" y="0px" xml:space="preserve" viewBox="0 0 485.656 485.656">
    <g>
      <g>
        <path d="M334.512,312h-200c-2.122,0-4.156,0.844-5.656,2.344l-96,96l11.312,11.312L137.824,328h187.888
			c-1.664,9.496-6.888,24-23.2,24h-88v16h88c31.64,0,40-31.4,40-48C342.512,315.582,338.93,312,334.512,312z"></path>
      </g>
    </g>
    <g>
      <g>
        <path d="M436.168,258.344c-3.124-3.123-8.188-3.123-11.312,0l-72,72l11.312,11.312l65.712-65.712
			c10.828,14.37,8.629,34.68-5.024,46.4L331.2,416H166.512c-2.122,0-4.156,0.844-5.656,2.344l-56,56l11.312,11.312L169.824,432
			h164.688c2.122,0,4.156-0.844,5.656-2.344l96-96C465.96,303.864,449.192,271.368,436.168,258.344z"></path>
      </g>
    </g>
    <g>
      <g>
        <path d="M390.512,112H361.76c-2.193-7.348-5.139-14.45-8.792-21.192l20.344-20.344c3.123-3.124,3.123-8.188,0-11.312
			L339.36,25.208c-3.124-3.123-8.188-3.123-11.312,0l-20.344,20.344c-6.741-3.658-13.843-6.607-21.192-8.8V8c0-4.418-3.582-8-8-8
			h-48c-4.418,0-8,3.582-8,8v28.752c-7.349,2.193-14.451,5.142-21.192,8.8l-20.344-20.344c-3.124-3.123-8.188-3.123-11.312,0
			l-33.952,33.944c-3.123,3.124-3.123,8.188,0,11.312l20.352,20.344c-3.655,6.742-6.604,13.844-8.8,21.192h-28.752
			c-4.418,0-8,3.582-8,8v48c0,4.418,3.582,8,8,8h28.752c2.193,7.348,5.139,14.45,8.792,21.192l-20.344,20.344
			c-3.123,3.124-3.123,8.188,0,11.312l33.952,33.952c3.174,3.001,8.138,3.001,11.312,0l20.344-20.352
			c6.742,3.655,13.844,6.604,21.192,8.8V280c0,4.418,3.582,8,8,8h48c4.418,0,8-3.582,8-8v-28.752
			c7.348-2.194,14.449-5.14,21.192-8.792l20.344,20.344c1.5,1.5,3.534,2.344,5.656,2.344s4.156-0.844,5.656-2.344l33.944-33.952
			c3.123-3.124,3.123-8.188,0-11.312l-20.344-20.344c3.655-6.742,6.604-13.844,8.8-21.192h28.752c4.418,0,8-3.582,8-8v-48
			C398.512,115.582,394.93,112,390.512,112z M382.513,160h-26.888c-3.709,0.001-6.931,2.551-7.784,6.16
			c-2.366,9.945-6.309,19.447-11.68,28.144c-1.95,3.157-1.473,7.241,1.152,9.864l19.032,19.024l-22.64,22.64l-19.024-19.04
			c-2.623-2.625-6.707-3.102-9.864-1.152c-8.695,5.378-18.197,9.325-28.144,11.688c-3.609,0.853-6.159,4.075-6.16,7.784V272h-32
			v-26.88c-0.001-3.709-2.551-6.931-6.16-7.784c-9.947-2.363-19.449-6.31-28.144-11.688c-3.157-1.95-7.241-1.473-9.864,1.152
			l-19.024,19.04l-22.64-22.64l19.032-19.04c2.625-2.623,3.102-6.707,1.152-9.864c-5.371-8.698-9.314-18.199-11.68-28.144
			c-0.853-3.609-4.075-6.159-7.784-6.16h-26.888v-32H153.4c3.709-0.001,6.931-2.551,7.784-6.16
			c2.366-9.945,6.309-19.446,11.68-28.144c1.95-3.157,1.473-7.241-1.152-9.864L152.68,64.8l22.632-22.624l19.032,19.032
			c2.623,2.625,6.707,3.102,9.864,1.152c8.693-5.379,18.196-9.323,28.144-11.68c3.609-0.853,6.159-4.075,6.16-7.784V16h32v26.896
			c0.002,3.711,2.555,6.934,6.168,7.784c9.948,2.357,19.451,6.301,28.144,11.68c3.157,1.95,7.241,1.473,9.864-1.152l19.024-19.032
			L356.345,64.8l-19.032,19.032c-2.625,2.623-3.102,6.707-1.152,9.864c5.371,8.698,9.314,18.199,11.68,28.144
			c0.853,3.609,4.075,6.159,7.784,6.16h26.888V160z"></path>
      </g>
    </g>
    <g>
      <g>
        <path d="M254.512,96c-26.51,0-48,21.49-48,48s21.491,48,48,48c26.499-0.026,47.974-21.501,48-48
			C302.512,117.49,281.022,96,254.512,96z M254.512,176c-17.673,0-32-14.327-32-32c0-17.673,14.327-32,32-32
			c17.673,0,32,14.327,32,32C286.512,161.673,272.185,176,254.512,176z"></path>
      </g>
    </g>
    <g></g>
    <g></g>
    <g></g>
    <g></g>
    <g></g>
    <g></g>
    <g></g>
    <g></g>
    <g></g>
    <g></g>
    <g></g>
    <g></g>
    <g></g>
    <g></g>
    <g></g>
  </symbol>
  <symbol id="snap" xmlns="http://www.w3.org/2000/svg" viewBox="0 0 512 512">
    <g fill="rgb(0,0,0)">
      <path d="m460.646 10h-416.708c-18.714 0-33.938 15.521-33.938 34.6v420.122c0 19.078 15.224 34.6 33.89 34.6 3.139.025 315.346 2.492 438.5 2.679h.03a19.282 19.282 0 0 0 13.827-5.813 19.917 19.917 0 0 0 5.753-14.418l-7.421-437.793c-.33-18.735-15.553-33.977-33.933-33.977zm-416.708 12h416.708c11.879 0 21.719 9.954 21.935 22.184l6.511 384.244-96.777-99.462a33.563 33.563 0 0 0 -54.35-3.721l-45.03 53.805a21.4 21.4 0 0 1 -18.452 7.764 21.636 21.636 0 0 1 -17.013-10.959l-81.253-140.576a33.583 33.583 0 0 0 -56.1-3.578l-98.117 113.313v-300.414c0-12.462 9.841-22.6 21.938-22.6zm443.767 465.764a7.377 7.377 0 0 1 -5.282 2.236h-.011c-123.12-.187-435.288-2.654-438.474-2.679-12.1 0-21.938-10.138-21.938-22.6v-101.375l107.321-123.946.271-.337a21.585 21.585 0 0 1 36.236 2.221l81.252 140.576a33.576 33.576 0 0 0 55.057 4.892l45.03-53.805a21.57 21.57 0 0 1 35.25 2.83l.356.591 106.615 109.572.612 36.028a8.007 8.007 0 0 1 -2.295 5.796z"></path>
      <path d="m284.988 218.5c29.7 0 53.864-24.671 53.864-54.995s-24.164-54.995-53.864-54.995-53.863 24.671-53.863 54.995 24.163 54.995 53.863 54.995zm0-97.99c23.084 0 41.864 19.287 41.864 42.995s-18.78 43-41.864 43-41.863-19.288-41.863-42.995 18.775-42.996 41.863-42.996z"></path>
    </g>
  </symbol>
  <symbol fill="#000000" xmlns="http://www.w3.org/2000/svg" xml:space="preserve" viewBox="0 0 24 24" id="tailwind">
    <path fill-rule="evenodd" clip-rule="evenodd" d="M12 6.036c-2.667 0-4.333 1.325-5 3.976 1-1.325 2.167-1.822 3.5-1.491.761.189 1.305.738 1.906 1.345C13.387 10.855 14.522 12 17 12c2.667 0 4.333-1.325 5-3.976-1 1.325-2.166 1.822-3.5 1.491-.761-.189-1.305-.738-1.907-1.345-.98-.99-2.114-2.134-4.593-2.134zM7 12c-2.667 0-4.333 1.325-5 3.976 1-1.326 2.167-1.822 3.5-1.491.761.189 1.305.738 1.907 1.345.98.989 2.115 2.134 4.594 2.134 2.667 0 4.333-1.325 5-3.976-1 1.325-2.167 1.822-3.5 1.491-.761-.189-1.305-.738-1.906-1.345C10.613 13.145 9.478 12 7 12z"></path>
  </symbol>
  <symbol xmlns="http://www.w3.org/2000/svg" viewBox="0 0 16 11" id="tick">
    <defs></defs>
    <path id="Shape_10_copy_5" d="M2,4L6,8l8-8"></path>
  </symbol>
  <symbol fill="#000000" xmlns="http://www.w3.org/2000/svg" viewBox="0 0 32 32" id="typescript">
    <path d="M0 16v16h32v-32h-32zM25.786 14.724c0.813 0.203 1.432 0.568 2.005 1.156 0.292 0.312 0.729 0.885 0.766 1.026 0.010 0.042-1.38 0.974-2.224 1.495-0.031 0.021-0.156-0.109-0.292-0.313-0.411-0.599-0.844-0.859-1.505-0.906-0.969-0.063-1.594 0.443-1.589 1.292-0.005 0.208 0.042 0.417 0.135 0.599 0.214 0.443 0.615 0.708 1.854 1.245 2.292 0.984 3.271 1.635 3.88 2.557 0.682 1.031 0.833 2.677 0.375 3.906-0.51 1.328-1.771 2.234-3.542 2.531-0.547 0.099-1.849 0.083-2.438-0.026-1.286-0.229-2.505-0.865-3.255-1.698-0.297-0.323-0.87-1.172-0.833-1.229 0.016-0.021 0.146-0.104 0.292-0.188s0.682-0.396 1.188-0.688l0.922-0.536 0.193 0.286c0.271 0.411 0.859 0.974 1.214 1.161 1.021 0.542 2.422 0.464 3.115-0.156 0.281-0.234 0.438-0.594 0.417-0.958 0-0.37-0.047-0.536-0.24-0.813-0.25-0.354-0.755-0.656-2.198-1.281-1.651-0.714-2.365-1.151-3.010-1.854-0.406-0.464-0.708-1.010-0.88-1.599-0.12-0.453-0.151-1.589-0.057-2.042 0.339-1.599 1.547-2.708 3.281-3.036 0.563-0.109 1.875-0.068 2.427 0.068zM18.276 16.063l0.010 1.307h-4.167v11.839h-2.948v-11.839h-4.161v-1.281c0-0.714 0.016-1.307 0.036-1.323 0.016-0.021 2.547-0.031 5.62-0.026l5.594 0.016z"></path>
  </symbol>
</svg>